<?xml version="1.0" encoding="utf-8"?>
<svg viewBox="896.1836 300.0789 48.7586 48.6667" xmlns="http://www.w3.org/2000/svg">
  <path class="cls-1" d="M 43.669 29.202 L 45.151 36.108 L 38.411 38.219 L 36.296 44.947 L 29.365 43.479 L 24.079 48.209 L 18.789 43.479 L 11.87 44.957 L 9.701 38.229 L 2.96 36.119 L 4.485 29.202 L -0.255 23.923 L 4.485 18.643 L 3.003 11.781 C 10.726 9.299 9.678 9.794 9.89 9.161 L 11.911 2.889 L 18.789 4.367 L 24.079 -0.363 L 29.365 4.367 L 36.284 2.889 L 38.401 9.616 L 45.14 11.781 L 43.669 18.643 L 48.409 23.923 L 43.669 29.202 Z" style="fill: rgb(255, 255, 255); transform-origin: 24.079px 23.923px;" transform="matrix(0.999997913837, 0.001948999823, -0.001948999823, 0.999997913837, 896.485916628495, 300.489262839449)"/>
  <path class="cls-1" d="M 42.52 29 L 43.92 35.54 L 37.55 37.54 L 35.55 43.91 L 29 42.52 L 24 47 L 19 42.52 L 12.46 43.92 L 10.41 37.55 L 4.04 35.55 L 5.48 29 L 1 24 L 5.48 19 L 4.08 12.5 C 11.38 10.15 10.39 10.62 10.59 10.02 L 12.5 4.08 L 19 5.48 L 24 1 L 29 5.48 L 35.54 4.08 L 37.54 10.45 L 43.91 12.5 L 42.52 19 L 47 24 L 42.52 29 Z" style="fill: rgb(5, 5, 5); transform-origin: 24px 24px;" transform="matrix(0.999997913837, 0.001948999823, -0.001948999823, 0.999997913837, 896.485888787506, 300.489261350555)"/>
  <path class="cls-2" d="M 39.821 36.803 L 37.541 37.543 L 35.541 43.913 L 28.991 42.513 L 23.991 46.993 L 18.991 42.513 L 12.451 43.913 L 10.401 37.543 L 4.031 35.543 L 5.471 28.993 L 0.991 23.993 L 5.471 18.993 L 4.071 12.493 C 11.371 10.143 10.381 10.613 10.581 10.013 C 25.682 10.309 38.208 21.786 39.821 36.803 Z" style="fill: rgb(54, 54, 54); transform-origin: 20.406px 28.503px;" transform="matrix(0.999997913837, 0.001948999823, -0.001948999823, 0.999997913837, 896.485909012161, 300.489266253557)"/>
  <circle class="cls-3" cx="24" cy="24" r="15" style="fill: rgb(218, 218, 218);" transform="matrix(0.9999979734420776, 0.0019489999394863844, -0.0019489999394863844, 0.9999979734420776, 896.5327208824456, 300.4425288066268)"/>
  <path class="cls-4" d="M 24.003 9.003 C 19.282 9.003 14.836 11.226 12.003 15.003 C 21.241 8.075 34.514 13.745 35.895 25.209 C 36.357 29.045 35.321 32.912 33.003 36.003 C 44.503 27.343 38.383 9.003 24.003 9.003 Z" style="fill: rgb(255, 255, 255); transform-origin: 25.5061px 22.503px;" transform="matrix(0.999997913837, 0.001948999823, -0.001948999823, 0.999997913837, 896.485873628945, 300.48927008861)"/>
  <path class="cls-1" d="M 17 32 C 16.23 32.004 15.744 31.174 16.125 30.505 C 16.17 30.426 16.226 30.354 16.29 30.29 L 30.29 16.29 C 30.837 15.743 31.77 15.994 31.97 16.74 C 32.063 17.087 31.964 17.456 31.71 17.71 C 16.41 33 17.59 32 17 32 Z" style="transform-origin: 23.9984px 24.0043px;" transform="matrix(0.999997913837, 0.001948999823, -0.001948999823, 0.999997913837, 896.48588040436, 300.489258204074)"/>
  <path class="cls-1" d="M 19.01 22.99 C 15.931 22.99 14.006 19.657 15.546 16.99 C 17.085 14.324 20.934 14.324 22.474 16.99 C 22.825 17.598 23.01 18.288 23.01 18.99 C 23.01 21.199 21.219 22.99 19.01 22.99 Z M 19.01 16.99 C 17.47 16.99 16.508 18.657 17.278 19.99 C 18.048 21.324 19.972 21.324 20.742 19.99 C 20.917 19.686 21.01 19.341 21.01 18.99 C 21.01 17.886 20.114 16.99 19.01 16.99 Z" style="transform-origin: 19.007px 18.9903px;" transform="matrix(0.999997913837, 0.001948999823, -0.001948999823, 0.999997913837, 896.485897547871, 300.489245001884)"/>
  <path class="cls-1" d="M 28.99 33.01 C 25.911 33.01 23.987 29.676 25.526 27.01 C 27.066 24.343 30.915 24.343 32.454 27.01 C 32.805 27.618 32.99 28.308 32.99 29.01 C 32.99 31.219 31.199 33.01 28.99 33.01 Z M 28.99 27.01 C 27.451 27.01 26.488 28.676 27.258 30.01 C 28.028 31.343 29.952 31.343 30.722 30.01 C 30.898 29.706 30.99 29.361 30.99 29.01 C 30.99 27.905 30.095 27.01 28.99 27.01 Z" style="transform-origin: 28.9872px 29.0099px;" transform="matrix(0.999997913837, 0.001948999823, -0.001948999823, 0.999997913837, 896.485879771602, 300.489266379389)"/>
</svg>