<svg xmlns="http://www.w3.org/2000/svg" viewBox="0 0 32 32"><g id="discount"><path d="M28.11,17.31l.19-.1A3.33,3.33,0,0,0,27.07,11a1.3,1.3,0,0,1-1-.63A1.34,1.34,0,0,1,26,9.17l0-.1a3.31,3.31,0,0,0-4.87-4A1.28,1.28,0,0,1,20,5.18a1.3,1.3,0,0,1-.81-.84A3.25,3.25,0,0,0,16.08,2h0a3.31,3.31,0,0,0-3.2,2.41,1.32,1.32,0,0,1-.81.85,1.36,1.36,0,0,1-1.22-.16A3.25,3.25,0,0,0,7,5.38a3.3,3.3,0,0,0-1,3.8l.08.2A1.35,1.35,0,0,1,6,10.54a1.32,1.32,0,0,1-1,.66l-.21,0a3.34,3.34,0,0,0-1.06,6.24l.14.07a1.33,1.33,0,0,1,.36,2.06l-.11.13a3.32,3.32,0,0,0,3.23,5.44,1.29,1.29,0,0,1,1.12.27A1.37,1.37,0,0,1,9,26.54a3.26,3.26,0,0,0,2.18,3.26A3.29,3.29,0,0,0,15,28.66,1.32,1.32,0,0,1,16,28.14h0a1.28,1.28,0,0,1,1.05.53,3.25,3.25,0,0,0,3.74,1.09A3.29,3.29,0,0,0,23,26.51v-.17a1.32,1.32,0,0,1,.48-1.07A1.28,1.28,0,0,1,24.58,25l.16,0a3.34,3.34,0,0,0,3.15-5.49l-.14-.16a1.35,1.35,0,0,1-.32-1.11A1.34,1.34,0,0,1,28.11,17.31Zm-.77-1.86-.19.11a3.33,3.33,0,0,0-.89,5.15l.14.15a1.32,1.32,0,0,1,.16,1.56,1.28,1.28,0,0,1-1.41.64L25,23a3.25,3.25,0,0,0-2.81.71A3.32,3.32,0,0,0,21,26.4v.18a1.3,1.3,0,0,1-.89,1.3,1.27,1.27,0,0,1-1.49-.45A3.27,3.27,0,0,0,16,26.14h0a3.33,3.33,0,0,0-2.66,1.33,1.29,1.29,0,0,1-1.49.45A1.31,1.31,0,0,1,11,26.59a3.3,3.3,0,0,0-3.29-3.45,3.37,3.37,0,0,0-.77.09,1.27,1.27,0,0,1-1.41-.61,1.3,1.3,0,0,1,.15-1.57l.11-.13a3.34,3.34,0,0,0-.93-5.15L4.7,15.7a1.33,1.33,0,0,1,.43-2.49l.21,0a3.33,3.33,0,0,0,2.6-4.53l-.08-.2a1.31,1.31,0,0,1,.39-1.53,1.32,1.32,0,0,1,1.61-.06,3.28,3.28,0,0,0,2.89.31A3.35,3.35,0,0,0,14.81,5,1.3,1.3,0,0,1,16.08,4a1.24,1.24,0,0,1,1.24.92,3.31,3.31,0,0,0,5,1.78,1.25,1.25,0,0,1,1.54.09,1.28,1.28,0,0,1,.39,1.51l0,.1a3.29,3.29,0,0,0,.22,2.93A3.33,3.33,0,0,0,26.9,13,1.26,1.26,0,0,1,28,14,1.29,1.29,0,0,1,27.34,15.45Z"/><path d="M20.55,9.17a1,1,0,0,0-1.38.28l-8,12a1,1,0,0,0,.28,1.38A.94.94,0,0,0,12,23a1,1,0,0,0,.83-.45l8-12A1,1,0,0,0,20.55,9.17Z"/><path d="M15,12a3,3,0,1,0-3,3A3,3,0,0,0,15,12Zm-4,0a1,1,0,1,1,1,1A1,1,0,0,1,11,12Z"/><path d="M22.23,20.13a1,1,0,0,0-1.36.37A1,1,0,1,1,20,19a1,1,0,0,0,0-2,3,3,0,1,0,2.6,4.5A1,1,0,0,0,22.23,20.13Z"/></g></svg>