<svg version="1.1" id="Layer_1" xmlns="http://www.w3.org/2000/svg" x="0" y="0" viewBox="0 0 2500 753.7" style="enable-background:new 0 0 2500 753.7" xml:space="preserve">
    <style>.st0{fill:#ffffff}</style>
    <path class="st0" d="M375.6 0C177.6 0 15.4 152.6 0 346.6l202 83.5c17.1-11.7 37.8-18.6 60-18.6 2 0 4 .1 5.9.2l89.8-130.2v-1.8c0-78.4 63.7-142.1 142.1-142.1 78.4 0 142.1 63.8 142.1 142.1s-63.7 142.1-142.1 142.1c-1.1 0-2.2 0-3.2-.1l-128.1 91.4c.1 1.7.1 3.4.1 5 0 58.8-47.9 106.7-106.7 106.7-51.6 0-94.8-36.9-104.6-85.7L13 479.6c44.7 158.1 190 274.1 362.6 274.1 208.1 0 376.9-168.7 376.9-376.8C752.4 168.7 583.7 0 375.6 0"/>
    <path class="st0" d="m236.2 571.8-46.3-19.1c8.2 17.1 22.4 31.4 41.2 39.2 40.7 17 87.7-2.4 104.7-43.1 8.2-19.7 8.3-41.5.1-61.2-8.1-19.8-23.5-35.2-43.2-43.4-19.6-8.2-40.6-7.9-59-.9l47.8 19.8c30 12.5 44.3 47 31.7 77.1-12.5 29.9-47 44.2-77 31.6M594.6 279.7c0-52.2-42.5-94.7-94.7-94.7s-94.7 42.5-94.7 94.7 42.5 94.7 94.7 94.7 94.7-42.5 94.7-94.7m-165.7-.1c0-39.3 31.9-71.1 71.1-71.1s71.1 31.8 71.1 71.1-31.9 71.1-71.1 71.1-71.1-31.9-71.1-71.1M1154.9 257.8l-25.3 44.4c-19.4-13.6-45.8-21.8-68.8-21.8-26.3 0-42.6 10.9-42.6 30.4 0 23.7 28.9 29.2 71.9 44.6 46.2 16.3 72.7 35.5 72.7 77.8 0 57.9-45.5 90.4-110.9 90.4-31.9 0-70.3-8.2-99.9-26.2l18.4-49.2c24 12.7 52.7 20.2 78.4 20.2 34.5 0 50.9-12.7 50.9-31.6 0-21.5-25-28-65.4-41.4-46-15.4-77.9-35.5-77.9-82.3 0-52.8 42.3-83.1 103.1-83.1 42.4 0 76.5 13.5 95.4 27.8M1352.3 285.9v232.9h-59.5V285.9h-86.3v-51h231.8v51zM1563.7 285.7v64h113.7v51h-113.7v66.6h132v51.5h-191.5V234.9h191.5v50.8zM1828.4 463.7l-18.8 55.1h-62.3l106.4-283.9h59.8L2023 518.8h-64.4l-19.2-55.1h-111zm54.9-161.1-38.8 113.7h78.3l-39.5-113.7zM2328.1 344.6l-77.7 165.9h-33.5l-76.5-164.4v172.7h-56.9V234.9h56.8l95.4 204.9 92.1-204.9h57.3v283.9h-57zM2500 270.7c0 24.4-18.3 39.6-39.3 39.6-21.1 0-39.4-15.2-39.4-39.6 0-24.4 18.3-39.5 39.4-39.5 21 0 39.3 15.1 39.3 39.5m-72 0c0 20.4 14.7 33.2 32.8 33.2 18 0 32.7-12.8 32.7-33.2 0-20.5-14.6-33.1-32.7-33.1s-32.8 12.8-32.8 33.1m33.3-20.2c10.2 0 13.6 5.4 13.6 11.2 0 5.3-3.2 8.9-7 10.7l9.1 17.1h-7.5l-7.7-15.2h-7.9v15.2h-6.2v-39h13.6zm-7.3 18.2h6.9c4.5 0 7.1-2.8 7.1-6.4 0-3.6-1.9-5.9-7.2-5.9h-6.9l.1 12.3z"/>
</svg>